<?xml version="1.0" encoding="UTF-8"?>
<!DOCTYPE svg PUBLIC "-//W3C//DTD SVG 1.1//EN" "http://www.w3.org/Graphics/SVG/1.1/DTD/svg11.dtd">
<svg xmlns="http://www.w3.org/2000/svg" version="1.1" width="72px" height="72px" style="shape-rendering:geometricPrecision; text-rendering:geometricPrecision; image-rendering:optimizeQuality; fill-rule:evenodd; clip-rule:evenodd" xmlns:xlink="http://www.w3.org/1999/xlink">
<g><path style="opacity:0.012" fill="#344b65" d="M 31.5,7.5 C 34.3035,6.36216 37.3035,6.19549 40.5,7C 37.5184,7.49796 34.5184,7.66463 31.5,7.5 Z"/></g>
<g><path style="opacity:0.016" fill="#203558" d="M 27.5,8.5 C 28.2506,7.42654 29.2506,7.25988 30.5,8C 29.552,8.48278 28.552,8.64945 27.5,8.5 Z"/></g>
<g><path style="opacity:0.992" fill="#0f9dcf" d="M 29.5,11.5 C 32.2869,10.5233 35.2869,10.19 38.5,10.5C 39.4916,10.3284 40.1583,10.6618 40.5,11.5C 39.209,11.2627 38.209,11.596 37.5,12.5C 36.1667,12.5 34.8333,12.5 33.5,12.5C 32.4324,11.5655 31.099,11.2322 29.5,11.5 Z"/></g>
<g><path style="opacity:0.847" fill="#344b69" d="M 31.5,9.5 C 38.3875,7.80225 44.7208,9.13559 50.5,13.5C 49.8333,13.5 49.1667,13.5 48.5,13.5C 47.391,13.4431 46.391,13.1098 45.5,12.5C 44.1667,12.1667 42.8333,11.8333 41.5,11.5C 41.1667,11.5 40.8333,11.5 40.5,11.5C 40.1583,10.6618 39.4916,10.3284 38.5,10.5C 36.3926,9.53178 34.0593,9.19845 31.5,9.5 Z"/></g>
<g><path style="opacity:0.99" fill="#0fbeef" d="M 40.5,11.5 C 40.8333,11.5 41.1667,11.5 41.5,11.5C 41.0825,12.2216 40.4158,12.7216 39.5,13C 43.2024,14.3522 43.2024,15.8522 39.5,17.5C 39.1692,15.6776 38.5025,14.0109 37.5,12.5C 38.209,11.596 39.209,11.2627 40.5,11.5 Z"/></g>
<g><path style="opacity:1" fill="#233c5d" d="M 31.5,9.5 C 34.0593,9.19845 36.3926,9.53178 38.5,10.5C 35.2869,10.19 32.2869,10.5233 29.5,11.5C 28.209,11.2627 27.209,11.596 26.5,12.5C 23.6689,13.0787 21.3356,14.412 19.5,16.5C 17.4131,17.5846 16.0798,19.2512 15.5,21.5C 13.7497,22.6594 12.7497,24.326 12.5,26.5C 11.596,27.209 11.2627,28.209 11.5,29.5C 10.5489,30.9187 10.2155,32.5853 10.5,34.5C 9.56552,33.4324 9.23219,32.099 9.5,30.5C 10.0768,26.0169 11.7435,22.0169 14.5,18.5C 15.1667,18.5 15.5,18.1667 15.5,17.5C 16.5,17.1667 17.1667,16.5 17.5,15.5C 18.1667,15.5 18.5,15.1667 18.5,14.5C 22.275,11.4626 26.6083,9.7959 31.5,9.5 Z"/></g>
<g><path style="opacity:0.996" fill="#0eb8e9" d="M 26.5,12.5 C 27.209,11.596 28.209,11.2627 29.5,11.5C 31.099,11.2322 32.4324,11.5655 33.5,12.5C 33.5,13.8333 32.8333,14.5 31.5,14.5C 31.1667,14.5 30.8333,14.5 30.5,14.5C 29.1266,14.6567 27.7932,14.49 26.5,14C 29.0972,13.2208 29.0972,12.7208 26.5,12.5 Z"/></g>
<g><path style="opacity:0.996" fill="#32c2ec" d="M 41.5,11.5 C 42.8333,11.8333 44.1667,12.1667 45.5,12.5C 45.0825,13.2216 44.4158,13.7216 43.5,14C 44.7375,14.2321 45.7375,14.7321 46.5,15.5C 45.5,15.5 44.5,15.5 43.5,15.5C 43.5,16.5 43.5,17.5 43.5,18.5C 45.1788,18.7148 46.1788,18.0481 46.5,16.5C 47.4013,17.2905 48.0679,18.2905 48.5,19.5C 46.8828,20.038 45.2161,20.3713 43.5,20.5C 43.5,19.8333 43.1667,19.5 42.5,19.5C 40.8008,19.6602 39.1341,19.4935 37.5,19C 38.4158,18.7216 39.0825,18.2216 39.5,17.5C 43.2024,15.8522 43.2024,14.3522 39.5,13C 40.4158,12.7216 41.0825,12.2216 41.5,11.5 Z"/></g>
<g><path style="opacity:0.996" fill="#10bdeb" d="M 26.5,12.5 C 29.0972,12.7208 29.0972,13.2208 26.5,14C 27.7932,14.49 29.1266,14.6567 30.5,14.5C 30.0825,15.2216 29.4158,15.7216 28.5,16C 25.5184,16.498 22.5184,16.6646 19.5,16.5C 21.3356,14.412 23.6689,13.0787 26.5,12.5 Z"/></g>
<g><path style="opacity:0.996" fill="#1a4b73" d="M 33.5,12.5 C 34.8333,12.5 36.1667,12.5 37.5,12.5C 38.5025,14.0109 39.1692,15.6776 39.5,17.5C 39.0825,18.2216 38.4158,18.7216 37.5,19C 39.1341,19.4935 40.8008,19.6602 42.5,19.5C 42.7678,21.099 42.4345,22.4324 41.5,23.5C 41.1667,23.5 40.8333,23.5 40.5,23.5C 37.5,23.5 34.5,23.5 31.5,23.5C 30.8333,23.5 30.1667,23.5 29.5,23.5C 29.5,22.8333 29.8333,22.5 30.5,22.5C 45.1667,21.8333 45.1667,21.1667 30.5,20.5C 30.4936,19.5826 31.4936,19.0826 33.5,19C 31.8934,17.951 31.2267,16.451 31.5,14.5C 32.8333,14.5 33.5,13.8333 33.5,12.5 Z"/></g>
<g><path style="opacity:0.008" fill="#364555" d="M 51.5,13.5 C 52.4971,12.2875 53.4971,12.4542 54.5,14C 53.9056,14.4643 53.2389,14.631 52.5,14.5C 52.5,13.8333 52.1667,13.5 51.5,13.5 Z"/></g>
<g><path style="opacity:0.004" fill="#252c3a" d="M 18.5,14.5 C 17.8333,14.5 17.5,14.8333 17.5,15.5C 16.8333,15.5 16.1667,15.5 15.5,15.5C 16.221,13.6182 17.221,13.2848 18.5,14.5 Z"/></g>
<g><path style="opacity:0.996" fill="#22c2ea" d="M 30.5,14.5 C 30.8333,14.5 31.1667,14.5 31.5,14.5C 31.2267,16.451 31.8934,17.951 33.5,19C 31.4936,19.0826 30.4936,19.5826 30.5,20.5C 30.5,21.1667 30.5,21.8333 30.5,22.5C 29.8333,22.5 29.5,22.8333 29.5,23.5C 28.5655,22.4324 28.2322,21.099 28.5,19.5C 26.302,19.1201 24.6354,19.7868 23.5,21.5C 22.5,20.8333 21.5,20.1667 20.5,19.5C 18.6203,19.2291 17.287,19.8958 16.5,21.5C 16.1667,21.5 15.8333,21.5 15.5,21.5C 16.0798,19.2512 17.4131,17.5846 19.5,16.5C 22.5184,16.6646 25.5184,16.498 28.5,16C 29.4158,15.7216 30.0825,15.2216 30.5,14.5 Z"/></g>
<g><path style="opacity:0.996" fill="#e6ebec" d="M 34.5,13.5 C 39.0205,14.9753 39.3538,16.9753 35.5,19.5C 34.5,18.5 33.5,17.5 32.5,16.5C 33.6119,15.7348 34.2786,14.7348 34.5,13.5 Z"/></g>
<g><path style="opacity:0.996" fill="#fbfdfb" d="M 46.5,15.5 C 46.5,15.8333 46.5,16.1667 46.5,16.5C 46.1788,18.0481 45.1788,18.7148 43.5,18.5C 43.5,17.5 43.5,16.5 43.5,15.5C 44.5,15.5 45.5,15.5 46.5,15.5 Z"/></g>
<g><path style="opacity:0.671" fill="#203d5f" d="M 48.5,13.5 C 49.1667,13.5 49.8333,13.5 50.5,13.5C 50.8333,13.5 51.1667,13.5 51.5,13.5C 52.1667,13.5 52.5,13.8333 52.5,14.5C 53.5,16.1667 54.8333,17.5 56.5,18.5C 56.5,19.1667 56.8333,19.5 57.5,19.5C 58.1667,20.8333 58.8333,22.1667 59.5,23.5C 58.8333,23.5 58.5,23.8333 58.5,24.5C 56.7368,21.9804 54.7368,19.6471 52.5,17.5C 51.1667,16.1667 49.8333,14.8333 48.5,13.5 Z"/></g>
<g><path style="opacity:0.004" fill="#242b3a" d="M 15.5,15.5 C 15.5,16.1667 15.5,16.8333 15.5,17.5C 14.8333,17.5 14.5,17.8333 14.5,18.5C 13.2848,17.221 13.6182,16.221 15.5,15.5 Z"/></g>
<g><path style="opacity:0.996" fill="#17aedc" d="M 45.5,12.5 C 46.391,13.1098 47.391,13.4431 48.5,13.5C 49.8333,14.8333 51.1667,16.1667 52.5,17.5C 51.6618,17.8417 51.3284,18.5084 51.5,19.5C 50.3478,20.625 49.3478,20.625 48.5,19.5C 48.0679,18.2905 47.4013,17.2905 46.5,16.5C 46.5,16.1667 46.5,15.8333 46.5,15.5C 45.7375,14.7321 44.7375,14.2321 43.5,14C 44.4158,13.7216 45.0825,13.2216 45.5,12.5 Z"/></g>
<g><path style="opacity:0.004" fill="#202a3a" d="M 57.5,19.5 C 56.8333,19.5 56.5,19.1667 56.5,18.5C 56.7467,16.0248 57.4134,16.0248 58.5,18.5C 58.3764,19.1067 58.0431,19.44 57.5,19.5 Z"/></g>
<g><path style="opacity:0.996" fill="#61ccec" d="M 20.5,19.5 C 21.5,20.1667 22.5,20.8333 23.5,21.5C 24.6005,22.6049 25.2671,23.9382 25.5,25.5C 25.1667,25.5 24.8333,25.5 24.5,25.5C 23.3778,24.0527 21.8778,23.0527 20,22.5C 19.5304,21.4232 19.6971,20.4232 20.5,19.5 Z"/></g>
<g><path style="opacity:0.996" fill="#2fd8f7" d="M 29.5,23.5 C 28.8166,25.1765 27.4832,25.8432 25.5,25.5C 25.2671,23.9382 24.6005,22.6049 23.5,21.5C 24.6354,19.7868 26.302,19.1201 28.5,19.5C 28.2322,21.099 28.5655,22.4324 29.5,23.5 Z"/></g>
<g><path style="opacity:0.996" fill="#98d0d9" d="M 30.5,20.5 C 45.1667,21.1667 45.1667,21.8333 30.5,22.5C 30.5,21.8333 30.5,21.1667 30.5,20.5 Z"/></g>
<g><path style="opacity:0.996" fill="#25d3f6" d="M 48.5,19.5 C 49.3478,20.625 50.3478,20.625 51.5,19.5C 54.0489,20.8313 53.7155,21.8313 50.5,22.5C 47.6122,23.0102 45.2789,22.3435 43.5,20.5C 45.2161,20.3713 46.8828,20.038 48.5,19.5 Z"/></g>
<g><path style="opacity:0.996" fill="#1ebfea" d="M 52.5,17.5 C 54.7368,19.6471 56.7368,21.9804 58.5,24.5C 58.5569,25.609 58.8902,26.609 59.5,27.5C 58.5084,27.6716 57.8417,27.3382 57.5,26.5C 56.36,22.3393 54.36,21.6726 51.5,24.5C 50.6618,24.1583 50.3284,23.4916 50.5,22.5C 53.7155,21.8313 54.0489,20.8313 51.5,19.5C 51.3284,18.5084 51.6618,17.8417 52.5,17.5 Z"/></g>
<g><path style="opacity:0.996" fill="#f8fcfb" d="M 20.5,19.5 C 19.6971,20.4232 19.5304,21.4232 20,22.5C 21.8778,23.0527 23.3778,24.0527 24.5,25.5C 21.1501,25.665 17.8168,25.4983 14.5,25C 15.7588,24.0766 17.0921,23.2432 18.5,22.5C 18.0431,21.7025 17.3764,21.3691 16.5,21.5C 17.287,19.8958 18.6203,19.2291 20.5,19.5 Z"/></g>
<g><path style="opacity:0.996" fill="#3cdbf7" d="M 42.5,19.5 C 43.1667,19.5 43.5,19.8333 43.5,20.5C 45.2789,22.3435 47.6122,23.0102 50.5,22.5C 50.3284,23.4916 50.6618,24.1583 51.5,24.5C 50.8333,25.1667 50.1667,25.8333 49.5,26.5C 48.6618,26.8417 48.3284,27.5084 48.5,28.5C 47.8333,28.5 47.1667,28.5 46.5,28.5C 46.5,27.5 46.5,26.5 46.5,25.5C 44.2188,25.9227 42.5521,25.256 41.5,23.5C 42.4345,22.4324 42.7678,21.099 42.5,19.5 Z"/></g>
<g><path style="opacity:0.996" fill="#eef9fa" d="M 57.5,26.5 C 54.8333,26.5 52.1667,26.5 49.5,26.5C 50.1667,25.8333 50.8333,25.1667 51.5,24.5C 54.36,21.6726 56.36,22.3393 57.5,26.5 Z"/></g>
<g><path style="opacity:0.992" fill="#4bc8ec" d="M 15.5,21.5 C 15.8333,21.5 16.1667,21.5 16.5,21.5C 17.3764,21.3691 18.0431,21.7025 18.5,22.5C 17.0921,23.2432 15.7588,24.0766 14.5,25C 17.8168,25.4983 21.1501,25.665 24.5,25.5C 24.5,26.1667 24.5,26.8333 24.5,27.5C 20.3998,27.7633 16.3998,27.4299 12.5,26.5C 12.7497,24.326 13.7497,22.6594 15.5,21.5 Z"/></g>
<g><path style="opacity:0.996" fill="#73d2e9" d="M 40.5,24.5 C 40.5,25.5 40.5,26.5 40.5,27.5C 40.1667,27.5 39.8333,27.5 39.5,27.5C 39.1667,27.5 38.8333,27.5 38.5,27.5C 36.9582,26.6993 35.2915,26.366 33.5,26.5C 33.6107,25.8826 33.944,25.3826 34.5,25C 36.4727,24.5045 38.4727,24.3379 40.5,24.5 Z"/></g>
<g><path style="opacity:0.996" fill="#255c7f" d="M 40.5,23.5 C 40.8333,23.5 41.1667,23.5 41.5,23.5C 42.5521,25.256 44.2188,25.9227 46.5,25.5C 46.5,26.5 46.5,27.5 46.5,28.5C 46.5,28.8333 46.5,29.1667 46.5,29.5C 44.5853,29.7845 42.9187,29.4511 41.5,28.5C 41.1667,28.5 40.8333,28.5 40.5,28.5C 40.5,28.1667 40.5,27.8333 40.5,27.5C 40.5,26.5 40.5,25.5 40.5,24.5C 40.5,24.1667 40.5,23.8333 40.5,23.5 Z"/></g>
<g><path style="opacity:0.996" fill="#22587d" d="M 29.5,23.5 C 30.1667,23.5 30.8333,23.5 31.5,23.5C 30.6314,25.717 30.298,28.0504 30.5,30.5C 27.6146,30.1936 24.9479,30.5269 22.5,31.5C 21.8333,31.5 21.5,31.1667 21.5,30.5C 22.9002,29.8999 23.9002,28.8999 24.5,27.5C 24.5,26.8333 24.5,26.1667 24.5,25.5C 24.8333,25.5 25.1667,25.5 25.5,25.5C 27.4832,25.8432 28.8166,25.1765 29.5,23.5 Z"/></g>
<g><path style="opacity:0.996" fill="#c4ecef" d="M 25.5,26.5 C 26.9778,26.238 28.3112,26.5713 29.5,27.5C 28.8333,27.8333 28.1667,28.1667 27.5,28.5C 26.2867,28.2528 25.62,27.5862 25.5,26.5 Z"/></g>
<g><path style="opacity:0.996" fill="#c3eef0" d="M 41.5,28.5 C 41.62,27.4138 42.2867,26.7472 43.5,26.5C 44.1667,26.8333 44.8333,27.1667 45.5,27.5C 44.3112,28.4287 42.9778,28.762 41.5,28.5 Z"/></g>
<g><path style="opacity:0.996" fill="#42ceee" d="M 49.5,26.5 C 52.1667,26.5 54.8333,26.5 57.5,26.5C 57.8417,27.3382 58.5084,27.6716 59.5,27.5C 59.5,27.8333 59.5,28.1667 59.5,28.5C 55.8333,28.5 52.1667,28.5 48.5,28.5C 48.3284,27.5084 48.6618,26.8417 49.5,26.5 Z"/></g>
<g><path style="opacity:0.996" fill="#38b0d4" d="M 31.5,23.5 C 34.5,23.5 37.5,23.5 40.5,23.5C 40.5,23.8333 40.5,24.1667 40.5,24.5C 38.4727,24.3379 36.4727,24.5045 34.5,25C 33.944,25.3826 33.6107,25.8826 33.5,26.5C 31.8958,27.287 31.2291,28.6203 31.5,30.5C 31.1667,30.5 30.8333,30.5 30.5,30.5C 30.298,28.0504 30.6314,25.717 31.5,23.5 Z"/></g>
<g><path style="opacity:0.996" fill="#71e4f3" d="M 12.5,26.5 C 16.3998,27.4299 20.3998,27.7633 24.5,27.5C 23.9002,28.8999 22.9002,29.8999 21.5,30.5C 20.5489,31.9187 20.2155,33.5853 20.5,35.5C 20.1667,35.5 19.8333,35.5 19.5,35.5C 19.5,35.1667 19.5,34.8333 19.5,34.5C 17.9894,32.5589 15.9894,32.0589 13.5,33C 12.7476,33.6708 12.4142,34.5041 12.5,35.5C 11.5386,33.7354 11.2053,31.7354 11.5,29.5C 11.2627,28.209 11.596,27.209 12.5,26.5 Z"/></g>
<g><path style="opacity:0.996" fill="#7be7f3" d="M 46.5,29.5 C 46.5,29.1667 46.5,28.8333 46.5,28.5C 47.1667,28.5 47.8333,28.5 48.5,28.5C 52.1667,28.5 55.8333,28.5 59.5,28.5C 60.3439,32.0991 60.6773,35.7657 60.5,39.5C 59.8333,40.1667 59.1667,40.8333 58.5,41.5C 57.9423,40.2101 56.9423,39.3768 55.5,39C 58.1899,38.6655 58.8565,37.4988 57.5,35.5C 58.3764,35.6309 59.0431,35.2975 59.5,34.5C 55.9955,31.6082 52.9955,31.9416 50.5,35.5C 51.4015,31.7593 50.0681,29.7593 46.5,29.5 Z"/></g>
<g><path style="opacity:0.996" fill="#93b3c5" d="M 30.5,30.5 C 30.8333,30.5 31.1667,30.5 31.5,30.5C 31.5,31.1667 31.5,31.8333 31.5,32.5C 31.1667,32.5 30.8333,32.5 30.5,32.5C 27.8333,32.5 25.1667,32.5 22.5,32.5C 22.5,32.1667 22.5,31.8333 22.5,31.5C 24.9479,30.5269 27.6146,30.1936 30.5,30.5 Z"/></g>
<g><path style="opacity:0.996" fill="#c1eaf4" d="M 33.5,26.5 C 33.5,27.1667 33.5,27.8333 33.5,28.5C 32.5489,29.9187 32.2155,31.5853 32.5,33.5C 34.5,33.5 36.5,33.5 38.5,33.5C 38.5,31.5 38.5,29.5 38.5,27.5C 38.8333,27.5 39.1667,27.5 39.5,27.5C 39.5,29.8333 39.5,32.1667 39.5,34.5C 36.3019,35.0356 33.6353,34.369 31.5,32.5C 31.5,31.8333 31.5,31.1667 31.5,30.5C 31.2291,28.6203 31.8958,27.287 33.5,26.5 Z"/></g>
<g><path style="opacity:0.996" fill="#84a7b8" d="M 46.5,29.5 C 50.0681,29.7593 51.4015,31.7593 50.5,35.5C 50.5,36.1667 50.1667,36.5 49.5,36.5C 49.5,35.8333 49.5,35.1667 49.5,34.5C 47.3647,32.631 44.6981,31.9644 41.5,32.5C 42.8021,30.9724 44.4687,29.9724 46.5,29.5 Z"/></g>
<g><path style="opacity:0.996" fill="#4c7791" d="M 19.5,34.5 C 18.5041,34.5858 17.6708,34.2524 17,33.5C 16.2904,34.9733 15.1238,35.6399 13.5,35.5C 13.1667,35.5 12.8333,35.5 12.5,35.5C 12.4142,34.5041 12.7476,33.6708 13.5,33C 15.9894,32.0589 17.9894,32.5589 19.5,34.5 Z"/></g>
<g><path style="opacity:0.996" fill="#2cb7e5" d="M 33.5,26.5 C 35.2915,26.366 36.9582,26.6993 38.5,27.5C 38.5,29.5 38.5,31.5 38.5,33.5C 36.5,33.5 34.5,33.5 32.5,33.5C 32.2155,31.5853 32.5489,29.9187 33.5,28.5C 33.5,27.8333 33.5,27.1667 33.5,26.5 Z"/></g>
<g><path style="opacity:0.996" fill="#bce6ef" d="M 33.5,28.5 C 37.7231,27.6061 38.3898,28.9394 35.5,32.5C 34.2949,31.4231 33.6282,30.0898 33.5,28.5 Z"/></g>
<g><path style="opacity:1" fill="#284162" d="M 59.5,23.5 C 62.1099,28.8222 63.1099,34.4889 62.5,40.5C 61.5655,41.5676 61.2322,42.901 61.5,44.5C 60.6618,44.8417 60.3284,45.5084 60.5,46.5C 59.6618,46.8417 59.3284,47.5084 59.5,48.5C 58.8333,48.5 58.5,48.8333 58.5,49.5C 57.8333,49.5 57.5,49.8333 57.5,50.5C 56.6618,50.1583 56.3284,49.4916 56.5,48.5C 57.7736,47.8106 57.7736,46.9772 56.5,46C 58.9229,44.4293 60.2562,42.2626 60.5,39.5C 60.6773,35.7657 60.3439,32.0991 59.5,28.5C 59.5,28.1667 59.5,27.8333 59.5,27.5C 58.8902,26.609 58.5569,25.609 58.5,24.5C 58.5,23.8333 58.8333,23.5 59.5,23.5 Z"/></g>
<g><path style="opacity:0.996" fill="#2d5076" d="M 40.5,28.5 C 40.8333,28.5 41.1667,28.5 41.5,28.5C 42.9187,29.4511 44.5853,29.7845 46.5,29.5C 44.4687,29.9724 42.8021,30.9724 41.5,32.5C 41.5,33.1667 41.5,33.8333 41.5,34.5C 41.5,37.8333 41.5,41.1667 41.5,44.5C 39.3523,44.6106 39.019,43.944 40.5,42.5C 37.3583,41.8326 34.3583,41.166 31.5,40.5C 34.5,40.5 37.5,40.5 40.5,40.5C 40.5,36.5 40.5,32.5 40.5,28.5 Z"/></g>
<g><path style="opacity:0.996" fill="#1a6895" d="M 41.5,32.5 C 44.6981,31.9644 47.3647,32.631 49.5,34.5C 49.1667,34.5 48.8333,34.5 48.5,34.5C 46.5,34.5 44.5,34.5 42.5,34.5C 42.1667,34.5 41.8333,34.5 41.5,34.5C 41.5,33.8333 41.5,33.1667 41.5,32.5 Z"/></g>
<g><path style="opacity:0.016" fill="#233c5c" d="M 63.5,40.5 C 63.3347,36.8183 63.5014,33.1516 64,29.5C 64.8099,33.3575 64.6433,37.0242 63.5,40.5 Z"/></g>
<g><path style="opacity:0.996" fill="#6ccae8" d="M 22.5,34.5 C 24.5,34.5 26.5,34.5 28.5,34.5C 28.719,35.675 28.3857,36.675 27.5,37.5C 25.8716,36.4647 24.205,36.4647 22.5,37.5C 22.5,36.5 22.5,35.5 22.5,34.5 Z"/></g>
<g><path style="opacity:0.996" fill="#6eceeb" d="M 42.5,34.5 C 44.5,34.5 46.5,34.5 48.5,34.5C 48.5,35.5 48.5,36.5 48.5,37.5C 46.795,36.4647 45.1284,36.4647 43.5,37.5C 42.6143,36.675 42.281,35.675 42.5,34.5 Z"/></g>
<g><path style="opacity:0.996" fill="#6fc8d8" d="M 11.5,29.5 C 11.2053,31.7354 11.5386,33.7354 12.5,35.5C 12.8333,35.5 13.1667,35.5 13.5,35.5C 13.9175,36.2216 14.5842,36.7216 15.5,37C 14.5,37.3333 13.5,37.6667 12.5,38C 14.5064,38.0826 15.5064,38.5826 15.5,39.5C 13.9382,39.7329 12.6049,40.3995 11.5,41.5C 10.6314,39.283 10.298,36.9496 10.5,34.5C 10.2155,32.5853 10.5489,30.9187 11.5,29.5 Z"/></g>
<g><path style="opacity:0.996" fill="#19628d" d="M 22.5,32.5 C 25.1667,32.5 27.8333,32.5 30.5,32.5C 30.5,35.1667 30.5,37.8333 30.5,40.5C 30.1667,40.5 29.8333,40.5 29.5,40.5C 29.7947,38.2646 29.4614,36.2646 28.5,34.5C 26.5,34.5 24.5,34.5 22.5,34.5C 21.1667,33.8333 21.1667,33.1667 22.5,32.5 Z"/></g>
<g><path style="opacity:0.996" fill="#56849e" d="M 19.5,35.5 C 19.8333,35.5 20.1667,35.5 20.5,35.5C 21.7345,37.3983 21.4011,39.065 19.5,40.5C 19.5634,41.6605 19.2301,42.9938 18.5,44.5C 16.9983,42.1371 17.3316,39.9705 19.5,38C 16.8875,36.9288 16.8875,36.0955 19.5,35.5 Z"/></g>
<g><path style="opacity:0.996" fill="#49bee5" d="M 28.5,34.5 C 29.4614,36.2646 29.7947,38.2646 29.5,40.5C 29.5,41.5 29.5,42.5 29.5,43.5C 29.1667,43.5 28.8333,43.5 28.5,43.5C 28.7852,41.712 28.4519,40.0453 27.5,38.5C 26.5713,39.6888 26.238,41.0222 26.5,42.5C 25.1667,42.5 23.8333,42.5 22.5,42.5C 22.5,40.8333 22.5,39.1667 22.5,37.5C 24.205,36.4647 25.8716,36.4647 27.5,37.5C 28.3857,36.675 28.719,35.675 28.5,34.5 Z"/></g>
<g><path style="opacity:0.996" fill="#65c0df" d="M 39.5,27.5 C 39.8333,27.5 40.1667,27.5 40.5,27.5C 40.5,27.8333 40.5,28.1667 40.5,28.5C 40.5,32.5 40.5,36.5 40.5,40.5C 37.5,40.5 34.5,40.5 31.5,40.5C 31.1667,40.5 30.8333,40.5 30.5,40.5C 30.5,37.8333 30.5,35.1667 30.5,32.5C 30.8333,32.5 31.1667,32.5 31.5,32.5C 33.6353,34.369 36.3019,35.0356 39.5,34.5C 39.5,32.1667 39.5,29.8333 39.5,27.5 Z"/></g>
<g><path style="opacity:0.996" fill="#537992" d="M 57.5,35.5 C 53.1195,35.6085 51.7862,37.6085 53.5,41.5C 51.0646,40.7298 49.7313,39.0632 49.5,36.5C 50.1667,36.5 50.5,36.1667 50.5,35.5C 52.9955,31.9416 55.9955,31.6082 59.5,34.5C 59.0431,35.2975 58.3764,35.6309 57.5,35.5 Z"/></g>
<g><path style="opacity:0.996" fill="#224469" d="M 19.5,34.5 C 19.5,34.8333 19.5,35.1667 19.5,35.5C 16.8875,36.0955 16.8875,36.9288 19.5,38C 17.3316,39.9705 16.9983,42.1371 18.5,44.5C 18.5,44.8333 18.5,45.1667 18.5,45.5C 17.8333,45.5 17.5,45.8333 17.5,46.5C 16.8333,46.1667 16.1667,45.8333 15.5,45.5C 16.6414,43.5487 16.6414,41.5487 15.5,39.5C 15.5064,38.5826 14.5064,38.0826 12.5,38C 13.5,37.6667 14.5,37.3333 15.5,37C 14.5842,36.7216 13.9175,36.2216 13.5,35.5C 15.1238,35.6399 16.2904,34.9733 17,33.5C 17.6708,34.2524 18.5041,34.5858 19.5,34.5 Z"/></g>
<g><path style="opacity:0.996" fill="#428aa8" d="M 21.5,30.5 C 21.5,31.1667 21.8333,31.5 22.5,31.5C 22.5,31.8333 22.5,32.1667 22.5,32.5C 21.1667,33.1667 21.1667,33.8333 22.5,34.5C 22.5,35.5 22.5,36.5 22.5,37.5C 22.5,39.1667 22.5,40.8333 22.5,42.5C 22.5,43.5 22.5,44.5 22.5,45.5C 21.0652,44.0867 20.0652,42.42 19.5,40.5C 21.4011,39.065 21.7345,37.3983 20.5,35.5C 20.2155,33.5853 20.5489,31.9187 21.5,30.5 Z"/></g>
<g><path style="opacity:0.996" fill="#2e5173" d="M 57.5,35.5 C 58.8565,37.4988 58.1899,38.6655 55.5,39C 56.9423,39.3768 57.9423,40.2101 58.5,41.5C 57.1418,41.8222 55.4752,41.8222 53.5,41.5C 51.7862,37.6085 53.1195,35.6085 57.5,35.5 Z"/></g>
<g><path style="opacity:0.996" fill="#2cb7e2" d="M 41.5,34.5 C 41.8333,34.5 42.1667,34.5 42.5,34.5C 42.281,35.675 42.6143,36.675 43.5,37.5C 45.1284,36.4647 46.795,36.4647 48.5,37.5C 48.5,37.8333 48.5,38.1667 48.5,38.5C 41.3381,38.6128 41.0048,39.6128 47.5,41.5C 45.9547,42.4519 44.288,42.7852 42.5,42.5C 42.5,43.5 42.5,44.5 42.5,45.5C 44.5,45.5 46.5,45.5 48.5,45.5C 48.5,46.1667 48.5,46.8333 48.5,47.5C 46.1667,47.5 43.8333,47.5 41.5,47.5C 41.5,46.5 41.5,45.5 41.5,44.5C 41.5,41.1667 41.5,37.8333 41.5,34.5 Z"/></g>
<g><path style="opacity:0.996" fill="#74cce8" d="M 28.5,43.5 C 27.0821,45.3079 25.0821,45.9746 22.5,45.5C 22.5,44.5 22.5,43.5 22.5,42.5C 23.8333,42.5 25.1667,42.5 26.5,42.5C 26.238,41.0222 26.5713,39.6888 27.5,38.5C 28.4519,40.0453 28.7852,41.712 28.5,43.5 Z"/></g>
<g><path style="opacity:0.996" fill="#407293" d="M 29.5,40.5 C 29.8333,40.5 30.1667,40.5 30.5,40.5C 30.8333,40.5 31.1667,40.5 31.5,40.5C 34.3583,41.166 37.3583,41.8326 40.5,42.5C 39.019,43.944 39.3523,44.6106 41.5,44.5C 41.5,45.5 41.5,46.5 41.5,47.5C 43.8333,47.5 46.1667,47.5 48.5,47.5C 48.8333,47.5 49.1667,47.5 49.5,47.5C 49.5,47.8333 49.5,48.1667 49.5,48.5C 42.8333,48.5 36.1667,48.5 29.5,48.5C 29.5,48.1667 29.5,47.8333 29.5,47.5C 29.5,46.1667 29.5,44.8333 29.5,43.5C 29.5,42.5 29.5,41.5 29.5,40.5 Z"/></g>
<g><path style="opacity:0.996" fill="#348fb0" d="M 48.5,34.5 C 48.8333,34.5 49.1667,34.5 49.5,34.5C 49.5,35.1667 49.5,35.8333 49.5,36.5C 49.7313,39.0632 51.0646,40.7298 53.5,41.5C 55.4752,41.8222 57.1418,41.8222 58.5,41.5C 59.1667,40.8333 59.8333,40.1667 60.5,39.5C 60.2562,42.2626 58.9229,44.4293 56.5,46C 57.7736,46.9772 57.7736,47.8106 56.5,48.5C 56.1667,48.5 55.8333,48.5 55.5,48.5C 55.628,46.3453 55.128,44.3453 54,42.5C 52.8403,44.797 51.8403,44.4637 51,41.5C 50.187,43.4357 49.687,45.4357 49.5,47.5C 49.1667,47.5 48.8333,47.5 48.5,47.5C 48.5,46.8333 48.5,46.1667 48.5,45.5C 48.5,43.1667 48.5,40.8333 48.5,38.5C 48.5,38.1667 48.5,37.8333 48.5,37.5C 48.5,36.5 48.5,35.5 48.5,34.5 Z"/></g>
<g><path style="opacity:0.757" fill="#274163" d="M 9.5,30.5 C 9.23219,32.099 9.56552,33.4324 10.5,34.5C 10.298,36.9496 10.6314,39.283 11.5,41.5C 11.7376,43.4044 12.7376,44.7377 14.5,45.5C 13.9285,46.9733 13.9285,48.64 14.5,50.5C 12.8058,49.4726 11.4725,48.1392 10.5,46.5C 9.59744,42.7196 8.93077,38.8862 8.5,35C 8.50848,33.2933 8.84182,31.7933 9.5,30.5 Z"/></g>
<g><path style="opacity:0.996" fill="#3690b4" d="M 15.5,39.5 C 16.6414,41.5487 16.6414,43.5487 15.5,45.5C 15.1667,45.5 14.8333,45.5 14.5,45.5C 12.7376,44.7377 11.7376,43.4044 11.5,41.5C 12.6049,40.3995 13.9382,39.7329 15.5,39.5 Z"/></g>
<g><path style="opacity:0.004" fill="#283c55" d="M 62.5,40.5 C 62.8333,40.5 63.1667,40.5 63.5,40.5C 63.7678,42.099 63.4345,43.4324 62.5,44.5C 62.5,43.1667 62.5,41.8333 62.5,40.5 Z"/></g>
<g><path style="opacity:0.996" fill="#7dd2eb" d="M 48.5,38.5 C 48.5,40.8333 48.5,43.1667 48.5,45.5C 46.5,45.5 44.5,45.5 42.5,45.5C 42.5,44.5 42.5,43.5 42.5,42.5C 44.288,42.7852 45.9547,42.4519 47.5,41.5C 41.0048,39.6128 41.3381,38.6128 48.5,38.5 Z"/></g>
<g><path style="opacity:0.996" fill="#86eaf3" d="M 18.5,45.5 C 19.2389,45.369 19.9056,45.5357 20.5,46C 19.5842,46.2784 18.9175,46.7784 18.5,47.5C 17.8333,47.5 17.5,47.1667 17.5,46.5C 17.5,45.8333 17.8333,45.5 18.5,45.5 Z"/></g>
<g><path style="opacity:0.996" fill="#2d6e8f" d="M 19.5,40.5 C 20.0652,42.42 21.0652,44.0867 22.5,45.5C 24.2789,47.3435 26.6122,48.0102 29.5,47.5C 29.5,47.8333 29.5,48.1667 29.5,48.5C 26.8333,48.5 24.1667,48.5 21.5,48.5C 20.791,47.596 19.791,47.2627 18.5,47.5C 18.9175,46.7784 19.5842,46.2784 20.5,46C 19.9056,45.5357 19.2389,45.369 18.5,45.5C 18.5,45.1667 18.5,44.8333 18.5,44.5C 19.2301,42.9938 19.5634,41.6605 19.5,40.5 Z"/></g>
<g><path style="opacity:0.996" fill="#33bee7" d="M 28.5,43.5 C 28.8333,43.5 29.1667,43.5 29.5,43.5C 29.5,44.8333 29.5,46.1667 29.5,47.5C 26.6122,48.0102 24.2789,47.3435 22.5,45.5C 25.0821,45.9746 27.0821,45.3079 28.5,43.5 Z"/></g>
<g><path style="opacity:0.996" fill="#9cb3c1" d="M 31.5,44.5 C 33.5,44.5 35.5,44.5 37.5,44.5C 37.5,45.5 37.5,46.5 37.5,47.5C 35.5,47.5 33.5,47.5 31.5,47.5C 31.5,46.5 31.5,45.5 31.5,44.5 Z"/></g>
<g><path style="opacity:0.008" fill="#233c5a" d="M 61.5,44.5 C 61.8333,44.5 62.1667,44.5 62.5,44.5C 62.6716,45.4916 62.3382,46.1583 61.5,46.5C 61.5,45.8333 61.5,45.1667 61.5,44.5 Z"/></g>
<g><path style="opacity:0.004" fill="#2b405b" d="M 10.5,46.5 C 10.631,47.2389 10.4643,47.9056 10,48.5C 9.30831,47.5632 9.47498,46.8966 10.5,46.5 Z"/></g>
<g><path style="opacity:0.992" fill="#305d81" d="M 14.5,45.5 C 14.8333,45.5 15.1667,45.5 15.5,45.5C 16.1667,45.8333 16.8333,46.1667 17.5,46.5C 17.5,47.1667 17.8333,47.5 18.5,47.5C 19.791,47.2627 20.791,47.596 21.5,48.5C 18.9179,48.0254 16.9179,48.6921 15.5,50.5C 15.1667,50.5 14.8333,50.5 14.5,50.5C 13.9285,48.64 13.9285,46.9733 14.5,45.5 Z"/></g>
<g><path style="opacity:0.996" fill="#234f75" d="M 55.5,48.5 C 53.5,48.5 51.5,48.5 49.5,48.5C 49.5,48.1667 49.5,47.8333 49.5,47.5C 49.687,45.4357 50.187,43.4357 51,41.5C 51.8403,44.4637 52.8403,44.797 54,42.5C 55.128,44.3453 55.628,46.3453 55.5,48.5 Z"/></g>
<g><path style="opacity:0.996" fill="#8ae9f4" d="M 50.5,46.5 C 51.3864,45.2241 52.3864,45.2241 53.5,46.5C 52.7666,47.087 51.7666,47.087 50.5,46.5 Z"/></g>
<g><path style="opacity:0.008" fill="#243b5a" d="M 60.5,46.5 C 60.8333,46.5 61.1667,46.5 61.5,46.5C 61.6716,47.4916 61.3382,48.1583 60.5,48.5C 60.5,47.8333 60.5,47.1667 60.5,46.5 Z"/></g>
<g><path style="opacity:0.927" fill="#aeb2be" d="M 21.5,48.5 C 24.1667,48.5 26.8333,48.5 29.5,48.5C 25.1667,49.1667 20.8333,49.8333 16.5,50.5C 16.1667,50.5 15.8333,50.5 15.5,50.5C 16.9179,48.6921 18.9179,48.0254 21.5,48.5 Z"/></g>
<g><path style="opacity:0.92" fill="#a2a9b8" d="M 29.5,48.5 C 36.1667,48.5 42.8333,48.5 49.5,48.5C 51.5,48.5 53.5,48.5 55.5,48.5C 55.6716,49.4916 55.3382,50.1583 54.5,50.5C 46.5,50.5 38.5,50.5 30.5,50.5C 25.8333,50.5 21.1667,50.5 16.5,50.5C 20.8333,49.8333 25.1667,49.1667 29.5,48.5 Z"/></g>
<g><path style="opacity:0.016" fill="#123154" d="M 59.5,48.5 C 59.8333,48.5 60.1667,48.5 60.5,48.5C 60.3147,49.1701 59.9813,49.1701 59.5,48.5 Z"/></g>
<g><path style="opacity:0.989" fill="#4f7291" d="M 16.5,50.5 C 21.1667,50.5 25.8333,50.5 30.5,50.5C 30.5,50.8333 30.5,51.1667 30.5,51.5C 25.9677,51.1818 21.6344,51.5151 17.5,52.5C 16.6618,52.1583 16.3284,51.4916 16.5,50.5 Z"/></g>
<g><path style="opacity:0.995" fill="#456f90" d="M 30.5,51.5 C 30.5,51.1667 30.5,50.8333 30.5,50.5C 38.5,50.5 46.5,50.5 54.5,50.5C 54.6716,51.4916 54.3382,52.1583 53.5,52.5C 49.3656,51.5151 45.0323,51.1818 40.5,51.5C 37.1667,51.5 33.8333,51.5 30.5,51.5 Z"/></g>
<g><path style="opacity:0.008" fill="#1c2e49" d="M 58.5,49.5 C 58.8333,49.5 59.1667,49.5 59.5,49.5C 59.6716,50.4916 59.3382,51.1583 58.5,51.5C 58.5,50.8333 58.5,50.1667 58.5,49.5 Z"/></g>
<g><path style="opacity:0.996" fill="#1abae8" d="M 40.5,51.5 C 45.0323,51.1818 49.3656,51.5151 53.5,52.5C 52.7095,53.4013 51.7095,54.0679 50.5,54.5C 48.0122,52.6122 45.0122,51.9455 41.5,52.5C 40.8333,52.5 40.5,52.1667 40.5,51.5 Z"/></g>
<g><path style="opacity:0.016" fill="#203858" d="M 57.5,51.5 C 57.8333,51.5 58.1667,51.5 58.5,51.5C 58.3147,52.1701 57.9813,52.1701 57.5,51.5 Z"/></g>
<g><path style="opacity:0.996" fill="#41cbf0" d="M 41.5,52.5 C 45.0122,51.9455 48.0122,52.6122 50.5,54.5C 47.5,54.5 44.5,54.5 41.5,54.5C 41.5,53.8333 41.5,53.1667 41.5,52.5 Z"/></g>
<g><path style="opacity:0.016" fill="#0a234a" d="M 56.5,52.5 C 56.8333,52.5 57.1667,52.5 57.5,52.5C 57.3147,53.1701 56.9813,53.1701 56.5,52.5 Z"/></g>
<g><path style="opacity:0.996" fill="#3ecaf0" d="M 18.5,52.5 C 22.649,51.9197 26.3157,52.5864 29.5,54.5C 26.5,54.5 23.5,54.5 20.5,54.5C 19.5,54.1667 18.8333,53.5 18.5,52.5 Z"/></g>
<g><path style="opacity:0.996" fill="#69cbee" d="M 17.5,52.5 C 21.6344,51.5151 25.9677,51.1818 30.5,51.5C 33.8333,51.5 37.1667,51.5 40.5,51.5C 40.5,52.1667 40.8333,52.5 41.5,52.5C 41.5,53.1667 41.5,53.8333 41.5,54.5C 37.5,54.5 33.5,54.5 29.5,54.5C 26.3157,52.5864 22.649,51.9197 18.5,52.5C 18.1667,52.5 17.8333,52.5 17.5,52.5 Z"/></g>
<g><path style="opacity:0.016" fill="#001642" d="M 55.5,53.5 C 55.8333,53.5 56.1667,53.5 56.5,53.5C 56.3147,54.1701 55.9813,54.1701 55.5,53.5 Z"/></g>
<g><path style="opacity:0.945" fill="#284465" d="M 55.5,48.5 C 55.8333,48.5 56.1667,48.5 56.5,48.5C 56.3284,49.4916 56.6618,50.1583 57.5,50.5C 57.5,50.8333 57.5,51.1667 57.5,51.5C 56.8333,51.5 56.5,51.8333 56.5,52.5C 55.8333,52.5 55.5,52.8333 55.5,53.5C 54.8333,53.5 54.5,53.8333 54.5,54.5C 53.8333,54.5 53.5,54.8333 53.5,55.5C 52.8333,55.8333 52.1667,56.1667 51.5,56.5C 51.5,55.8333 51.1667,55.5 50.5,55.5C 50.5,55.1667 50.5,54.8333 50.5,54.5C 51.7095,54.0679 52.7095,53.4013 53.5,52.5C 54.3382,52.1583 54.6716,51.4916 54.5,50.5C 55.3382,50.1583 55.6716,49.4916 55.5,48.5 Z"/></g>
<g><path style="opacity:0.016" fill="#051c45" d="M 54.5,54.5 C 54.8333,54.5 55.1667,54.5 55.5,54.5C 55.3147,55.1701 54.9813,55.1701 54.5,54.5 Z"/></g>
<g><path style="opacity:1" fill="#193659" d="M 14.5,50.5 C 14.8333,50.5 15.1667,50.5 15.5,50.5C 15.8333,50.5 16.1667,50.5 16.5,50.5C 16.3284,51.4916 16.6618,52.1583 17.5,52.5C 17.8333,52.5 18.1667,52.5 18.5,52.5C 18.8333,53.5 19.5,54.1667 20.5,54.5C 23.5344,57.0164 26.8677,59.0164 30.5,60.5C 30.5,60.8333 30.5,61.1667 30.5,61.5C 23.4649,60.1047 18.1316,56.438 14.5,50.5 Z"/></g>
<g><path style="opacity:0.996" fill="#26afdc" d="M 20.5,54.5 C 23.5,54.5 26.5,54.5 29.5,54.5C 29.5,55.1667 29.5,55.8333 29.5,56.5C 33.3727,58.4302 37.706,59.0969 42.5,58.5C 38.7905,60.1357 34.7905,60.8023 30.5,60.5C 26.8677,59.0164 23.5344,57.0164 20.5,54.5 Z"/></g>
<g><path style="opacity:0.996" fill="#a1e2f2" d="M 29.5,54.5 C 33.5,54.5 37.5,54.5 41.5,54.5C 37.9707,56.4228 33.9707,57.0894 29.5,56.5C 29.5,55.8333 29.5,55.1667 29.5,54.5 Z"/></g>
<g><path style="opacity:0.996" fill="#68c4e9" d="M 41.5,54.5 C 44.5,54.5 47.5,54.5 50.5,54.5C 50.5,54.8333 50.5,55.1667 50.5,55.5C 48.0465,57.0598 45.3798,58.0598 42.5,58.5C 37.706,59.0969 33.3727,58.4302 29.5,56.5C 33.9707,57.0894 37.9707,56.4228 41.5,54.5 Z"/></g>
<g><path style="opacity:0.02" fill="#102a4e" d="M 53.5,55.5 C 53.8333,55.5 54.1667,55.5 54.5,55.5C 54.3147,56.1701 53.9813,56.1701 53.5,55.5 Z"/></g>
<g><path style="opacity:0.431" fill="#162f52" d="M 50.5,55.5 C 51.1667,55.5 51.5,55.8333 51.5,56.5C 50.1283,57.5116 48.795,58.5116 47.5,59.5C 46.5084,59.3284 45.8417,59.6618 45.5,60.5C 44.209,60.2627 43.209,60.596 42.5,61.5C 38.5,61.5 34.5,61.5 30.5,61.5C 30.5,61.1667 30.5,60.8333 30.5,60.5C 34.7905,60.8023 38.7905,60.1357 42.5,58.5C 45.3798,58.0598 48.0465,57.0598 50.5,55.5 Z"/></g>
<g><path style="opacity:0.008" fill="#162d50" d="M 47.5,60.5 C 47.5,60.1667 47.5,59.8333 47.5,59.5C 50.1667,59.8333 50.1667,60.1667 47.5,60.5 Z"/></g>
<g><path style="opacity:0.012" fill="#142f51" d="M 45.5,61.5 C 45.5,61.1667 45.5,60.8333 45.5,60.5C 46.1667,60.5 46.8333,60.5 47.5,60.5C 47.1583,61.3382 46.4916,61.6716 45.5,61.5 Z"/></g>
<g><path style="opacity:0.016" fill="#0f2b50" d="M 42.5,62.5 C 42.5,62.1667 42.5,61.8333 42.5,61.5C 43.5,61.5 44.5,61.5 45.5,61.5C 44.791,62.404 43.791,62.7373 42.5,62.5 Z"/></g>
<g><path style="opacity:0.008" fill="#0d2b55" d="M 42.5,62.5 C 38.0189,63.6484 33.3522,63.8151 28.5,63C 33.1548,62.5008 37.8215,62.3342 42.5,62.5 Z"/></g>
</svg>
